<svg
  width="127"
  height="127"
  viewBox="0 0 127 127"
  fill="none"
  xmlns="http://www.w3.org/2000/svg"
>
  <rect width="127" height="127" rx="20" fill="#191919" />
  <rect
    x="9.46197"
    y="9.46191"
    width="108.076"
    height="108.076"
    rx="17.7897"
    fill="black"
    stroke="#3C3C3C"
    stroke-width="0.42053"
  />
  <path
    d="M57.8746 32.3173C58.9337 34.0119 59.0185 36.1513 58.1288 38.7356C57.2815 41.3198 55.4598 43.0992 52.6637 44.0736C49.91 45.048 48.2577 44.9209 47.707 43.6923C52.2401 42.8873 54.8455 41.4257 55.5233 39.3075C55.5233 38.3755 55.2903 37.6976 54.8243 37.274C54.4007 36.808 53.7652 36.3843 52.9179 36.003C52.113 35.5794 51.2657 35.3675 50.376 35.3675C50.2489 35.3675 50.0583 35.3675 49.8041 35.3675C49.5922 35.3675 49.5499 35.1981 49.677 34.8592L52.1553 28.8857C54.9514 29.4364 56.8578 30.5803 57.8746 32.3173ZM55.5869 63.4555C55.2903 62.5659 54.7396 61.7186 53.9347 60.9136C53.0874 59.8545 52.2612 59.325 51.4563 59.325C51.0326 59.325 50.5878 59.558 50.1218 60.024C49.6558 60.49 49.4651 61.1255 49.5499 61.9304C49.5499 62.2693 49.7193 62.6082 50.0583 62.9472C50.3972 63.2861 50.7361 63.4555 51.075 63.4555H55.5869ZM56.9214 73.5596C55.7352 73.5596 54.676 73.5596 53.744 73.5596C52.8543 73.5596 52.2189 73.5596 51.8376 73.5596C50.1006 73.5596 48.9779 73.4113 48.4696 73.1148C48.0036 72.7758 47.5587 72.331 47.1351 71.7803C46.7114 71.1872 46.4784 70.4881 46.436 69.6832C46.3937 68.8783 46.3725 67.798 46.3725 66.4423C46.3725 65.0866 46.4996 63.625 46.7538 62.0575C47.0503 60.4476 47.6646 58.7107 48.5967 56.8466C49.5287 54.9825 51.0115 53.9022 53.045 53.6057C55.4174 53.6057 57.345 55.0037 58.8278 57.7998C59.7175 59.4521 60.3741 61.3373 60.7978 63.4555H62.45H68.9954V73.5596H61.3697C61.285 76.271 60.5648 79.1094 59.2091 82.075C57.8958 85.0405 55.6928 87.6036 52.6002 89.7642C49.5499 91.9248 46.3301 92.8357 42.9409 92.4968C41.4582 92.4968 40.0601 92.0307 38.7468 91.0987C37.8148 90.3785 36.5226 89.5524 34.8704 88.6204C41.2251 87.9002 46.4784 86.1208 50.6302 83.2824C54.8243 80.4863 57.112 78.0715 57.4933 76.038L56.9214 73.5596ZM86.5345 56.0205C86.8311 58.6471 86.6828 61.4644 86.0897 64.4723C85.4966 67.4379 84.4375 69.7044 82.9123 71.2719C81.4295 72.797 78.9724 73.5596 75.5408 73.5596H68.0422V63.4555H75.9856C80.9847 63.4979 83.4631 62.9683 83.4207 61.8669C83.2512 60.6806 82.8064 59.3673 82.0862 57.9269C81.5355 56.5289 80.7305 55.152 79.6714 53.7963C79.8409 53.4574 80.434 52.25 81.4507 50.1741C82.4675 48.0982 83.0606 46.9967 83.2301 46.8696C84.7976 49.3692 85.899 52.4195 86.5345 56.0205ZM89.9661 30.4744C89.6695 34.4991 89.2247 36.7868 88.6316 37.3375C87.1912 38.439 85.0306 39.8159 82.1497 41.4681C79.0147 43.3322 74.9265 45.6411 69.8851 48.3948C70.1816 46.1918 70.8595 44.3701 71.9186 42.9297C72.6388 41.9977 73.0836 41.3834 73.2531 41.0868C73.126 40.9174 72.9142 40.5361 72.6176 39.943C72.3211 39.3499 72.1304 38.6297 72.0457 37.7824C72.0033 36.9351 72.1516 35.6006 72.4905 33.7789C72.9989 31.703 73.7403 30.0296 74.7147 28.7586C75.7314 27.4453 76.7906 26.5556 77.8921 26.0896C78.6546 25.666 79.6502 25.3694 80.8788 25.1999C82.6158 24.9034 83.5478 25.0729 83.6749 25.7083C83.336 26.9793 82.7852 28.2079 82.0226 29.3941C81.2601 30.8769 80.5611 31.6182 79.9256 31.6182C79.5443 31.6182 79.2901 31.6606 79.163 31.7453C79.0359 31.7877 78.7817 31.8089 78.4004 31.8089C75.9433 32.5715 74.6088 33.4823 74.3969 34.5414C75.1172 36.1513 77.1295 36.6173 80.434 35.9395C82.0862 35.3464 83.569 34.6262 84.8823 33.7789C86.1956 33.0163 87.8902 31.9148 89.9661 30.4744Z"
    fill="white"
  />
</svg>
